<mxfile host="Electron" modified="2024-01-06T01:28:42.345Z" agent="Mozilla/5.0 (Windows NT 10.0; Win64; x64) AppleWebKit/537.36 (KHTML, like Gecko) draw.io/22.1.16 Chrome/120.0.6099.109 Electron/28.1.0 Safari/537.36" etag="TRAIXT0ARXvySgFSexs7" version="22.1.16" type="device">
  <diagram name="Page-1" id="2cc2dc42-3aac-f2a9-1cec-7a8b7cbee084">
    <mxGraphModel dx="1400" dy="1771" grid="1" gridSize="10" guides="1" tooltips="1" connect="1" arrows="1" fold="1" page="1" pageScale="1" pageWidth="1100" pageHeight="850" background="none" math="0" shadow="0">
      <root>
        <mxCell id="0" />
        <mxCell id="1" parent="0" />
        <mxCell id="AsocRW2U9enTBRK1ayEM-1" value="" style="strokeWidth=1;shadow=0;dashed=0;align=center;html=1;shape=mxgraph.mockup.containers.browserWindow;rSize=0;strokeColor=#666666;strokeColor2=#008cff;strokeColor3=#c4c4c4;mainText=,;recursiveResize=0;" parent="1" vertex="1">
          <mxGeometry x="30" y="40" width="1100" height="1500" as="geometry" />
        </mxCell>
        <mxCell id="AsocRW2U9enTBRK1ayEM-2" value="Page 1" style="strokeWidth=1;shadow=0;dashed=0;align=center;html=1;shape=mxgraph.mockup.containers.anchor;fontSize=17;fontColor=#666666;align=left;whiteSpace=wrap;" parent="AsocRW2U9enTBRK1ayEM-1" vertex="1">
          <mxGeometry x="60" y="12" width="110" height="26" as="geometry" />
        </mxCell>
        <mxCell id="AsocRW2U9enTBRK1ayEM-3" value="https://www.draw.io" style="strokeWidth=1;shadow=0;dashed=0;align=center;html=1;shape=mxgraph.mockup.containers.anchor;rSize=0;fontSize=17;fontColor=#666666;align=left;" parent="AsocRW2U9enTBRK1ayEM-1" vertex="1">
          <mxGeometry x="130" y="60" width="250" height="26" as="geometry" />
        </mxCell>
        <mxCell id="AsocRW2U9enTBRK1ayEM-9" value="" style="rounded=0;whiteSpace=wrap;html=1;" parent="AsocRW2U9enTBRK1ayEM-1" vertex="1">
          <mxGeometry y="110" width="1100" height="80" as="geometry" />
        </mxCell>
        <mxCell id="AsocRW2U9enTBRK1ayEM-11" value="SIGNUP" style="strokeWidth=1;shadow=0;dashed=0;align=center;html=1;shape=mxgraph.mockup.buttons.button;strokeColor=#666666;fontColor=#ffffff;mainText=;buttonStyle=round;fontSize=17;fontStyle=1;fillColor=#008cff;whiteSpace=wrap;" parent="AsocRW2U9enTBRK1ayEM-1" vertex="1">
          <mxGeometry x="980" y="115" width="110" height="70" as="geometry" />
        </mxCell>
        <mxCell id="AsocRW2U9enTBRK1ayEM-13" value="HOME" style="strokeWidth=1;shadow=0;dashed=0;align=center;html=1;shape=mxgraph.mockup.buttons.button;strokeColor=#666666;fontColor=#ffffff;mainText=;buttonStyle=round;fontSize=17;fontStyle=1;fillColor=#008cff;whiteSpace=wrap;" parent="AsocRW2U9enTBRK1ayEM-1" vertex="1">
          <mxGeometry x="730" y="115" width="110" height="70" as="geometry" />
        </mxCell>
        <mxCell id="AsocRW2U9enTBRK1ayEM-12" value="CONTACT" style="strokeWidth=1;shadow=0;dashed=0;align=center;html=1;shape=mxgraph.mockup.buttons.button;strokeColor=#666666;fontColor=#ffffff;mainText=;buttonStyle=round;fontSize=17;fontStyle=1;fillColor=#008cff;whiteSpace=wrap;" parent="AsocRW2U9enTBRK1ayEM-1" vertex="1">
          <mxGeometry x="860" y="115" width="110" height="70" as="geometry" />
        </mxCell>
        <mxCell id="AsocRW2U9enTBRK1ayEM-14" value="" style="verticalLabelPosition=bottom;shadow=0;dashed=0;align=center;html=1;verticalAlign=top;strokeWidth=1;shape=mxgraph.mockup.graphics.simpleIcon;strokeColor=#999999;" parent="AsocRW2U9enTBRK1ayEM-1" vertex="1">
          <mxGeometry x="10" y="125" width="290" height="50" as="geometry" />
        </mxCell>
        <mxCell id="AsocRW2U9enTBRK1ayEM-15" value="&lt;b&gt;&lt;font style=&quot;font-size: 18px;&quot;&gt;LOGO&lt;/font&gt;&lt;/b&gt;" style="text;html=1;strokeColor=none;fillColor=none;align=center;verticalAlign=middle;whiteSpace=wrap;rounded=0;" parent="AsocRW2U9enTBRK1ayEM-1" vertex="1">
          <mxGeometry x="125" y="135" width="60" height="30" as="geometry" />
        </mxCell>
        <mxCell id="AsocRW2U9enTBRK1ayEM-20" value="&lt;font style=&quot;font-size: 23px;&quot;&gt;&lt;br&gt;&lt;/font&gt;" style="text;html=1;strokeColor=none;fillColor=none;align=center;verticalAlign=middle;whiteSpace=wrap;rounded=0;" parent="AsocRW2U9enTBRK1ayEM-1" vertex="1">
          <mxGeometry x="130" y="250" width="270" height="60" as="geometry" />
        </mxCell>
        <mxCell id="AsocRW2U9enTBRK1ayEM-42" value="" style="rounded=0;whiteSpace=wrap;html=1;" parent="AsocRW2U9enTBRK1ayEM-1" vertex="1">
          <mxGeometry x="135" y="1150" width="830" height="150" as="geometry" />
        </mxCell>
        <mxCell id="AsocRW2U9enTBRK1ayEM-43" value="&lt;font style=&quot;font-size: 23px;&quot;&gt;MAP&lt;/font&gt;" style="text;html=1;strokeColor=none;fillColor=none;align=center;verticalAlign=middle;whiteSpace=wrap;rounded=0;" parent="AsocRW2U9enTBRK1ayEM-1" vertex="1">
          <mxGeometry x="425" y="1170" width="240" height="110" as="geometry" />
        </mxCell>
        <mxCell id="AsocRW2U9enTBRK1ayEM-44" value="" style="rounded=0;whiteSpace=wrap;html=1;" parent="AsocRW2U9enTBRK1ayEM-1" vertex="1">
          <mxGeometry y="1350" width="1100" height="150" as="geometry" />
        </mxCell>
        <mxCell id="AsocRW2U9enTBRK1ayEM-46" value="&lt;font style=&quot;font-size: 23px;&quot;&gt;INSTITUTIONAL INFORMATION&lt;/font&gt;" style="rounded=0;whiteSpace=wrap;html=1;" parent="AsocRW2U9enTBRK1ayEM-1" vertex="1">
          <mxGeometry x="315" y="1370" width="480" height="50" as="geometry" />
        </mxCell>
        <mxCell id="AsocRW2U9enTBRK1ayEM-47" value="&lt;font style=&quot;font-size: 17px;&quot;&gt;BANK&#39;S SOCIAL MEDIA LINKS&lt;/font&gt;" style="rounded=0;whiteSpace=wrap;html=1;" parent="AsocRW2U9enTBRK1ayEM-1" vertex="1">
          <mxGeometry x="270" y="1430" width="560" height="60" as="geometry" />
        </mxCell>
        <mxCell id="7dA4ARxV66aEvDsSmovw-2" value="&lt;font style=&quot;font-size: 60px;&quot;&gt;404 IMAGE&lt;/font&gt;" style="rounded=0;whiteSpace=wrap;html=1;" vertex="1" parent="AsocRW2U9enTBRK1ayEM-1">
          <mxGeometry x="60" y="350" width="980" height="670" as="geometry" />
        </mxCell>
        <mxCell id="7dA4ARxV66aEvDsSmovw-3" value="&lt;font style=&quot;font-size: 39px;&quot;&gt;404 PAGE NOT FOUND&lt;/font&gt;" style="text;html=1;strokeColor=none;fillColor=none;align=center;verticalAlign=middle;whiteSpace=wrap;rounded=0;" vertex="1" parent="AsocRW2U9enTBRK1ayEM-1">
          <mxGeometry x="250" y="250" width="620" height="90" as="geometry" />
        </mxCell>
        <mxCell id="7dA4ARxV66aEvDsSmovw-4" value="&lt;font style=&quot;font-size: 28px;&quot;&gt;LINK TO RETURN TO HOME&lt;/font&gt;" style="text;html=1;strokeColor=none;fillColor=none;align=center;verticalAlign=middle;whiteSpace=wrap;rounded=0;" vertex="1" parent="AsocRW2U9enTBRK1ayEM-1">
          <mxGeometry x="360" y="1040" width="390" height="30" as="geometry" />
        </mxCell>
        <mxCell id="AsocRW2U9enTBRK1ayEM-4" value="&lt;font style=&quot;font-size: 28px;&quot;&gt;404 ERROR PAGE&lt;/font&gt;" style="text;html=1;strokeColor=none;fillColor=none;align=center;verticalAlign=middle;whiteSpace=wrap;rounded=0;" parent="1" vertex="1">
          <mxGeometry x="30" y="-20" width="1100" height="60" as="geometry" />
        </mxCell>
      </root>
    </mxGraphModel>
  </diagram>
</mxfile>
